#N canvas 154 71 920 666 12;
#X obj 204 282 dac~;
#X floatatom 150 120 5 0 0 0 - - -;
#X obj 204 252 *~;
#X floatatom 262 196 5 0 0 0 - - -;
#X obj 262 218 / 100;
#X obj 150 149 osc~;
#X msg 262 168 0;
#X msg 297 168 50;
#X obj 24 14 key;
#X msg 24 61 60;
#X msg 55 61 62;
#X msg 86 61 64;
#X msg 118 61 65;
#X msg 150 61 67;
#X msg 181 61 69;
#X msg 213 61 71;
#X msg 246 61 72;
#X obj 150 92 mtof;
#X obj 150 204 expr~ sin($v1);
#X obj 150 179 *~;
#X floatatom 193 131 5 0 0 0 - - -;
#X obj 193 153 / 100;
#X obj 24 37 route 113 119 101 114 116 121 117 105;
#X connect 1 0 5 0;
#X connect 2 0 0 0;
#X connect 2 0 0 1;
#X connect 3 0 4 0;
#X connect 4 0 2 1;
#X connect 5 0 19 0;
#X connect 6 0 3 0;
#X connect 7 0 3 0;
#X connect 8 0 22 0;
#X connect 9 0 17 0;
#X connect 10 0 17 0;
#X connect 11 0 17 0;
#X connect 12 0 17 0;
#X connect 13 0 17 0;
#X connect 14 0 17 0;
#X connect 15 0 17 0;
#X connect 16 0 17 0;
#X connect 17 0 1 0;
#X connect 18 0 2 0;
#X connect 19 0 18 0;
#X connect 20 0 21 0;
#X connect 21 0 19 1;
#X connect 22 0 9 0;
#X connect 22 1 10 0;
#X connect 22 2 11 0;
#X connect 22 3 12 0;
#X connect 22 4 13 0;
#X connect 22 5 14 0;
#X connect 22 6 15 0;
#X connect 22 7 16 0;
