#N canvas 97 80 1050 647 12;
#X obj 382 174 hsl 128 15 0 127 0 0 empty empty empty -2 -8 0 10 -262144
-1 -1 0 0;
#X obj 380 196 / 128;
#X obj 242 250 *~;
#X obj 242 273 dac~;
#X obj 242 112 line~;
#X obj 242 27 mtof;
#X floatatom 242 50 5 0 0 0 - - -;
#X obj 242 83 pack 0 10;
#X floatatom 300 30 5 0 200 0 - - -;
#X obj 242 145 phasor~;
#X obj 242 168 -~ 0.5;
#N canvas 0 22 450 300 envelope 0;
#X obj 51 84 line~;
#X obj 51 57 pack 0 30;
#X obj 57 23 inlet;
#X obj 51 107 outlet~;
#X connect 0 0 3 0;
#X connect 1 0 0 0;
#X connect 2 0 1 0;
#X restore 380 221 pd envelope;
#N canvas 0 22 474 425 lfo 0;
#X obj 80 147 outlet~;
#X obj 80 101 *~ 300;
#X obj 33 41 osc~ 0.1;
#X obj 112 42 osc~ 0.13;
#X obj 54 70 +~;
#X obj 80 125 +~ 1000;
#X connect 1 0 5 0;
#X connect 2 0 4 0;
#X connect 3 0 4 1;
#X connect 4 0 1 0;
#X connect 5 0 0 0;
#X restore 248 191 pd lfo;
#X floatatom 301 186 5 0 100 0 - - -;
#X obj 242 221 vcf~;
#X obj 38 244 random 15;
#X floatatom 38 290 5 0 0 0 - - -;
#X obj 38 267 + 30;
#X obj 38 51 bng 15 250 50 0 empty empty empty 17 7 0 10 -262144 -1
-1;
#X obj 45 5 tgl 15 0 empty empty empty 17 7 0 10 -262144 -1 -1 0 1
;
#X floatatom 85 264 5 0 0 0 - - -;
#X obj 50 72 f;
#X floatatom 7 119 5 0 0 0 - - -;
#X obj 82 72 + 1;
#X obj 38 28 metro 150;
#X floatatom 95 5 5 0 0 0 - - -;
#X obj 50 118 mod 16;
#X obj 50 141 sel 0;
#X floatatom 77 95 5 0 0 0 - - -;
#X obj 128 101 + 1;
#X obj 128 78 random 5;
#X obj 128 124 * 100;
#X obj 159 206 vline~;
#X obj 159 229 *~;
#X obj 159 252 *~;
#X msg 110 149 0.9 1 \, 0 200 200;
#X obj 92 191 tgl 15 0 empty empty empty 17 7 0 10 -262144 -1 -1 0
1;
#X msg 23 190 seed \$1;
#X obj 23 216 spigot;
#X obj 23 167 random 10000;
#X connect 0 0 1 0;
#X connect 1 0 11 0;
#X connect 2 0 3 0;
#X connect 2 0 3 1;
#X connect 4 0 9 0;
#X connect 5 0 6 0;
#X connect 6 0 7 0;
#X connect 7 0 4 0;
#X connect 8 0 7 1;
#X connect 9 0 10 0;
#X connect 10 0 14 0;
#X connect 12 0 14 1;
#X connect 13 0 14 2;
#X connect 14 1 2 0;
#X connect 15 0 17 0;
#X connect 16 0 5 0;
#X connect 17 0 16 0;
#X connect 18 0 15 0;
#X connect 18 0 21 0;
#X connect 18 0 30 0;
#X connect 18 0 35 0;
#X connect 19 0 24 0;
#X connect 20 0 17 1;
#X connect 21 0 23 0;
#X connect 21 0 26 0;
#X connect 23 0 21 1;
#X connect 24 0 18 0;
#X connect 25 0 24 1;
#X connect 26 0 27 0;
#X connect 26 0 22 0;
#X connect 27 0 39 0;
#X connect 28 0 26 1;
#X connect 29 0 31 0;
#X connect 30 0 29 0;
#X connect 31 0 25 0;
#X connect 32 0 33 0;
#X connect 32 0 33 1;
#X connect 33 0 34 0;
#X connect 33 0 34 1;
#X connect 34 0 2 1;
#X connect 35 0 32 0;
#X connect 36 0 38 1;
#X connect 37 0 38 0;
#X connect 38 0 15 0;
#X connect 39 0 37 0;
