#N canvas 336 54 636 724 10;
#X obj 29 264 osc~;
#X obj 29 327 dac~;
#X obj 83 229 tgl 15 0 empty empty empty 17 7 0 10 -262144 -1 -1 0
0.3;
#X obj 32 144 hsl 128 15 30 110 0 0 empty empty empty -2 -8 0 10 -262144
-1 -1 20000 1;
#X obj 29 164 mtof;
#X floatatom 29 186 5 0 0 0 - - -;
#X obj 29 11 r fromGUI;
#X obj 29 33 route list;
#X obj 29 55 route /note /onOff;
#X floatatom 29 87 5 0 0 0 - - -;
#X floatatom 82 79 5 0 0 0 - - -;
#X obj 82 98 * 0.3;
#X obj 29 120 expr $f1*80+30;
#X obj 83 279 line~;
#X obj 83 252 pack 0 30;
#X obj 29 294 *~;
#X floatatom 134 227 5 0 0 0 - - -;
#X obj 29 238 line~;
#X obj 29 209 pack 0 10;
#X floatatom 73 183 5 0 0 0 - - -;
#X connect 0 0 15 0;
#X connect 2 0 14 0;
#X connect 3 0 4 0;
#X connect 4 0 5 0;
#X connect 5 0 18 0;
#X connect 6 0 7 0;
#X connect 7 0 8 0;
#X connect 8 0 9 0;
#X connect 8 1 10 0;
#X connect 9 0 12 0;
#X connect 10 0 11 0;
#X connect 11 0 2 0;
#X connect 12 0 3 0;
#X connect 13 0 15 1;
#X connect 14 0 13 0;
#X connect 15 0 1 0;
#X connect 15 0 1 1;
#X connect 16 0 14 1;
#X connect 17 0 0 0;
#X connect 18 0 17 0;
#X connect 19 0 18 1;
