#N canvas 1312 604 1087 432 12;
#X obj 85 43 tgl 15 0 empty t00 empty 17 7 0 10 -262144 -1 -1 1 1;
#X obj 107 43 tgl 15 0 empty t01 empty 17 7 0 10 -262144 -1 -1 0 1
;
#X obj 129 43 tgl 15 0 empty t02 empty 17 7 0 10 -262144 -1 -1 0 1
;
#X obj 150 43 tgl 15 0 empty t03 empty 17 7 0 10 -262144 -1 -1 0 1
;
#X obj 85 63 tgl 15 0 empty t10 empty 17 7 0 10 -262144 -1 -1 0 1;
#X obj 107 63 tgl 15 0 empty t11 empty 17 7 0 10 -262144 -1 -1 1 1
;
#X obj 129 63 tgl 15 0 empty t12 empty 17 7 0 10 -262144 -1 -1 0 1
;
#X obj 150 63 tgl 15 0 empty t13 empty 17 7 0 10 -262144 -1 -1 1 1
;
#X obj 85 83 tgl 15 0 empty t20 empty 17 7 0 10 -262144 -1 -1 1 1;
#X obj 107 83 tgl 15 0 empty t21 empty 17 7 0 10 -262144 -1 -1 0 1
;
#X obj 129 83 tgl 15 0 empty t22 empty 17 7 0 10 -262144 -1 -1 1 1
;
#X obj 150 83 tgl 15 0 empty t23 empty 17 7 0 10 -262144 -1 -1 0 1
;
#X obj 85 103 tgl 15 0 empty t30 empty 17 7 0 10 -262144 -1 -1 1 1
;
#X obj 107 103 tgl 15 0 empty t31 empty 17 7 0 10 -262144 -1 -1 0 1
;
#X obj 129 103 tgl 15 0 empty t32 empty 17 7 0 10 -262144 -1 -1 1 1
;
#X obj 150 103 tgl 15 0 empty t33 empty 17 7 0 10 -262144 -1 -1 1 1
;
#X obj 39 226 s toGUI;
#X msg 61 197 list /myGrid 3 3 1;
#X msg 39 174 list /myGrid 3 3 0;
#X obj 226 25 r fromGUI;
#X obj 226 49 list trim;
#X obj 226 73 route /myGrid;
#X obj 226 97 route 0 1 2 3;
#X obj 226 132 route 0 1 2 3;
#X obj 226 159 s t00;
#X obj 350 131 route 0 1 2 3;
#X obj 462 132 route 0 1 2 3;
#X obj 586 131 route 0 1 2 3;
#X obj 248 183 s t01;
#X obj 270 159 s t02;
#X obj 292 183 s t03;
#X obj 350 158 s t10;
#X obj 372 182 s t11;
#X obj 394 158 s t12;
#X obj 416 182 s t13;
#X obj 462 159 s t20;
#X obj 484 183 s t21;
#X obj 506 159 s t22;
#X obj 528 183 s t23;
#X obj 586 158 s t30;
#X obj 608 182 s t31;
#X obj 630 158 s t32;
#X obj 652 182 s t33;
#X connect 17 0 16 0;
#X connect 18 0 16 0;
#X connect 19 0 20 0;
#X connect 20 0 21 0;
#X connect 21 0 22 0;
#X connect 22 0 23 0;
#X connect 22 1 25 0;
#X connect 22 2 26 0;
#X connect 22 3 27 0;
#X connect 23 0 24 0;
#X connect 23 1 28 0;
#X connect 23 2 29 0;
#X connect 23 3 30 0;
#X connect 25 0 31 0;
#X connect 25 1 32 0;
#X connect 25 2 33 0;
#X connect 25 3 34 0;
#X connect 26 0 35 0;
#X connect 26 1 36 0;
#X connect 26 2 37 0;
#X connect 26 3 38 0;
#X connect 27 0 39 0;
#X connect 27 1 40 0;
#X connect 27 2 41 0;
#X connect 27 3 42 0;
