#N canvas 953 360 260 424 12;
#N canvas 1242 733 1099 524 tablet-ctl 0;
#X obj 20 20 receive fromGUI;
#X obj 20 45 list trim;
#X obj 614 73 send toGUI;
#X obj 741 20 receive fromSystem;
#X obj 741 45 list trim;
#X obj 741 70 route /tilts;
#X obj 741 95 unpack 0 0;
#X obj 74 95 sel 1;
#X obj 183 95 sel 1;
#X obj 741 170 s volume;
#X obj 20 146 s frag;
#X obj 74 120 s next;
#X obj 183 120 s gotoone;
#X obj 20 95 unpack;
#X obj 20 120 + 1;
#X obj 129 95 s play;
#X obj 21 347 loadbang;
#X obj 21 486 send toGUI;
#X obj 614 20 r menuupd;
#X msg 21 377 list /menu frag1 frag2 frag3 frag4 frag5 frag6 frag7
frag8 frag9 frag10 frag11 frag12 frag13 frag14 frag15 frag16 frag17
frag18 frag19 frag20 frag21 frag22 frag23 frag24 frag25 frag26 frag27
frag28 frag29 frag30 frag31 frag32 frag33 frag34 frag35 frag36 frag37
frag38 frag39 frag40 frag41 frag42 frag43 frag44 frag45 frag46 frag47
frag48 frag49 frag50 frag51 frag52 frag53;
#X obj 808 121 + 1;
#X msg 614 45 list /count \$1;
#X obj 238 95 s metro;
#X obj 292 120 s click;
#X obj 20 222 s sintri;
#X obj 158 222 * 5;
#X obj 158 246 + 0.01;
#X obj 158 293 s symspeed;
#X obj 227 270 s attack;
#X obj 296 270 s release;
#X obj 365 246 s feedback;
#X obj 434 222 s del-mix;
#X obj 365 222 * 0.999;
#X obj 296 222 * 999;
#X obj 296 246 + 1;
#X obj 227 222 * 199;
#X obj 227 246 + 1;
#X obj 613 385 loadbang;
#X obj 613 474 send toGUI;
#X obj 741 120 + 1;
#X obj 741 145 * 0.5;
#X obj 89 222 * 1.2;
#X obj 89 246 + 0.1;
#X obj 89 270 s legato;
#X obj 808 170 s drive;
#X obj 808 146 * 2;
#X obj 347 120 s mdel;
#X obj 347 95 * 250;
#X obj 20 70 route /menu /next /play /gotoone /metro /click /mdel,
f 55;
#X obj 20 198 route /sintri /legato /symspeed /attack /release /feedback
/del-mix /amdepth /amratio /amr-q, f 99;
#X obj 503 270 s amdepth;
#X obj 641 222 s amr-q;
#X obj 572 270 s amratio;
#X obj 503 222 * 4;
#X obj 503 246 + 0.01;
#X obj 572 246 + 1;
#X obj 572 222 * 6;
#X msg 613 415 list /count 0 \, list /attack 0.035 \, list /release
0.3 \, list /legato 0.5 \, list /symspeed 0.008 \, list /feedback 0.3
\, list /del-mix 0.15 \, list /amr-q 1;
#X connect 0 0 1 0;
#X connect 1 0 48 0;
#X connect 3 0 4 0;
#X connect 4 0 5 0;
#X connect 5 0 6 0;
#X connect 6 0 39 0;
#X connect 6 1 20 0;
#X connect 7 0 11 0;
#X connect 8 0 12 0;
#X connect 13 0 14 0;
#X connect 14 0 10 0;
#X connect 16 0 19 0;
#X connect 18 0 21 0;
#X connect 19 0 17 0;
#X connect 20 0 45 0;
#X connect 21 0 2 0;
#X connect 25 0 26 0;
#X connect 26 0 27 0;
#X connect 32 0 30 0;
#X connect 33 0 34 0;
#X connect 34 0 29 0;
#X connect 35 0 36 0;
#X connect 36 0 28 0;
#X connect 37 0 57 0;
#X connect 39 0 40 0;
#X connect 40 0 9 0;
#X connect 41 0 42 0;
#X connect 42 0 43 0;
#X connect 45 0 44 0;
#X connect 47 0 46 0;
#X connect 48 0 13 0;
#X connect 48 1 7 0;
#X connect 48 2 15 0;
#X connect 48 3 8 0;
#X connect 48 4 22 0;
#X connect 48 5 23 0;
#X connect 48 6 47 0;
#X connect 48 7 49 0;
#X connect 49 0 24 0;
#X connect 49 1 41 0;
#X connect 49 2 25 0;
#X connect 49 3 35 0;
#X connect 49 4 33 0;
#X connect 49 5 32 0;
#X connect 49 6 31 0;
#X connect 49 7 53 0;
#X connect 49 8 56 0;
#X connect 49 9 51 0;
#X connect 53 0 54 0;
#X connect 54 0 50 0;
#X connect 55 0 52 0;
#X connect 56 0 55 0;
#X connect 57 0 38 0;
#X restore 78 382 pd tablet-ctl;
#N canvas 1248 77 705 963 westcoast-synth 0;
#X obj 303 51 r note;
#X obj 441 898 dac~;
#X obj 303 97 unpack 0 0 0;
#X text 278 76 midinote amp dur;
#X obj 121 120 hsl 128 15 1 200 0 0 empty attack attack -2 -8 0 10
-228856 -1 -1 447 1;
#X obj 121 150 hsl 128 15 0.01 1.2 0 0 empty legato legato -2 -8 0
10 -228856 -1 -1 8431 1;
#X obj 122 209 hsl 128 15 1 4 0 0 empty drive drive -2 -8 0 10 -228856
-1 -1 0 1;
#X obj 122 411 hsl 128 15 0 1 0 0 empty volume volume -2 -8 0 10 -228856
-1 -1 6350 1;
#X obj 121 179 hsl 128 15 1 1000 0 0 empty release release -2 -8 0
10 -228856 -1 -1 3801 1;
#X obj 123 351 hsl 128 15 0 0.99 0 0 empty feedback feedback -2 -8
0 10 -228856 -1 -1 3848 1;
#X obj 122 239 hsl 128 15 0.01 5 1 0 empty symspeed symspeed -2 -8
0 10 -228856 -1 -1 3289 1;
#X obj 466 840 +~;
#X obj 402 264 mtof;
#X obj 343 404 *~;
#X obj 343 529 cos~;
#X obj 343 552 hip~ 5;
#X obj 402 330 osc~;
#X obj 343 503 +~;
#X obj 466 529 cos~;
#X obj 466 552 hip~ 5;
#X obj 466 502 +~ 0.03;
#X obj 439 330 tri~;
#X obj 439 356 lop~ 5000;
#X obj 132 260 tgl 15 0 empty sintri sin/tri 17 7 0 10 -262144 -1 -1
0 1;
#N canvas 879 740 450 300 switch 0;
#X obj 60 32 inlet;
#X obj 165 32 inlet~;
#X obj 107 32 inlet~;
#X obj 107 203 outlet~;
#X obj 165 174 *~;
#X obj 60 55 - 1;
#X obj 60 78 * -1;
#X msg 180 126 \$1 30;
#X obj 180 147 line~;
#X obj 107 173 *~;
#X msg 122 125 \$1 30;
#X obj 122 146 line~;
#X connect 0 0 5 0;
#X connect 0 0 7 0;
#X connect 1 0 4 0;
#X connect 2 0 9 0;
#X connect 4 0 3 0;
#X connect 5 0 6 0;
#X connect 6 0 10 0;
#X connect 7 0 8 0;
#X connect 8 0 4 1;
#X connect 9 0 3 0;
#X connect 10 0 11 0;
#X connect 11 0 9 1;
#X restore 372 379 pd switch;
#X obj 343 286 *~;
#X obj 343 308 *~;
#X obj 278 840 +~;
#X obj 343 125 t f b;
#X obj 306 778 *~;
#X obj 494 778 *~;
#X obj 296 747 delread4~ ndelL;
#X obj 484 747 delread4~ ndelR;
#X obj 123 381 hsl 128 15 0 1 0 0 empty del-mix del-mix -2 -8 0 10
-228856 -1 -1 1905 1;
#X obj 296 810 *~;
#X obj 484 810 *~;
#X obj 375 181 del;
#X obj 343 264 line~;
#X obj 375 209 pack 0 0;
#X obj 393 131 * 1;
#X obj 343 234 pack 0 0;
#X obj 572 639 osc~ 0.1;
#X obj 387 639 osc~ 0.15;
#X obj 361 427 osc~ 0.23;
#X obj 361 451 +~ 0;
#X obj 361 476 /~ 4;
#X obj 343 332 *~;
#X msg 296 510 \$1 30;
#X obj 296 534 line~;
#X msg 293 275 \$1 30;
#X obj 293 299 line~;
#X obj 278 864 expr~ tanh($v1);
#X obj 447 43 loadbang;
#X obj 387 665 *~ 3;
#X obj 572 662 *~ 3;
#X obj 278 604 *~;
#X obj 466 604 *~;
#X obj 312 677 vcf~ 1;
#X msg 143 599 \$1 30;
#X obj 143 623 line~;
#X obj 498 677 vcf~ 1;
#X obj 393 155 + 10;
#X obj 142 571 expr $f1*3000+200;
#X obj 346 778 lop~ 3000;
#X obj 534 778 lop~ 3000;
#X obj 312 650 *~ 0.5;
#X obj 498 650 *~ 0.5;
#X obj 466 866 expr~ tanh($v1);
#X obj 578 325 osc~;
#X obj 578 349 *~;
#X obj 578 298 * 1;
#X obj 124 291 hsl 128 15 0.01 4 1 0 empty amdepth amdepth -2 -8 0
10 -228856 -1 -1 9761 1;
#X obj 124 321 hsl 128 15 1 7 0 0 empty amratio amratio -2 -8 0 10
-228856 -1 -1 2117 1;
#X obj 199 262 tgl 15 0 empty amr-q amr-q 17 7 0 10 -262144 -1 -1 1
1;
#X obj 578 211 int;
#X obj 631 239 spigot;
#X obj 578 239 spigot;
#X obj 633 175 * -1;
#X obj 633 199 + 1;
#X msg 447 71 \; attack 8 \; legato 0.8 \; release 300 \; drive 1 \;
symspeed 0.05 \; feedback 0.3 \; del-mix 0.15 \; volume 0.5 \; sintri
0 \; amr-q 1 \; amdepth 1 \; amratio 2;
#X msg 619 306 \$1 30;
#X obj 619 330 line~;
#X obj 572 688 +~ 500;
#X obj 387 689 +~ 375;
#X obj 294 716 delwrite~ ndelL 375;
#X obj 483 716 delwrite~ ndelR 500;
#X obj 578 270 t b f;
#X obj 578 403 +~ 1;
#X obj 402 298 *~;
#X obj 578 376 *~;
#X obj 521 825 *~ 0.3;
#X obj 337 826 *~ 0.3;
#X obj 346 802 *~ 0.5;
#X obj 535 802 *~ 0.5;
#X connect 0 0 2 0;
#X connect 2 0 12 0;
#X connect 2 1 28 0;
#X connect 2 2 39 0;
#X connect 4 0 40 1;
#X connect 4 0 61 1;
#X connect 5 0 39 1;
#X connect 6 0 49 0;
#X connect 7 0 47 0;
#X connect 7 0 62 0;
#X connect 8 0 38 1;
#X connect 9 0 29 1;
#X connect 9 0 30 1;
#X connect 10 0 43 0;
#X connect 11 0 67 0;
#X connect 12 0 70 0;
#X connect 12 0 88 0;
#X connect 12 0 21 0;
#X connect 13 0 17 0;
#X connect 14 0 15 0;
#X connect 15 0 55 1;
#X connect 15 0 65 0;
#X connect 16 0 24 1;
#X connect 17 0 14 0;
#X connect 17 0 20 0;
#X connect 18 0 19 0;
#X connect 19 0 56 0;
#X connect 19 0 66 0;
#X connect 20 0 18 0;
#X connect 21 0 22 0;
#X connect 22 0 24 2;
#X connect 23 0 24 0;
#X connect 24 0 13 1;
#X connect 25 0 26 0;
#X connect 25 0 26 1;
#X connect 26 0 46 0;
#X connect 26 0 89 1;
#X connect 27 0 51 0;
#X connect 28 0 40 0;
#X connect 28 1 36 0;
#X connect 29 0 63 0;
#X connect 30 0 64 0;
#X connect 31 0 29 0;
#X connect 31 0 34 0;
#X connect 32 0 30 0;
#X connect 32 0 35 0;
#X connect 33 0 34 1;
#X connect 33 0 35 1;
#X connect 34 0 27 1;
#X connect 35 0 11 1;
#X connect 36 0 38 0;
#X connect 37 0 25 0;
#X connect 37 0 25 1;
#X connect 38 0 37 0;
#X connect 39 0 61 0;
#X connect 40 0 37 0;
#X connect 41 0 54 0;
#X connect 42 0 53 0;
#X connect 43 0 44 0;
#X connect 44 0 45 0;
#X connect 45 0 17 1;
#X connect 46 0 13 0;
#X connect 47 0 48 0;
#X connect 48 0 55 1;
#X connect 48 0 56 1;
#X connect 49 0 50 0;
#X connect 50 0 46 1;
#X connect 51 0 1 0;
#X connect 52 0 79 0;
#X connect 53 0 83 0;
#X connect 54 0 82 0;
#X connect 55 0 27 0;
#X connect 55 0 84 0;
#X connect 56 0 11 0;
#X connect 56 0 85 0;
#X connect 57 1 27 0;
#X connect 57 1 84 0;
#X connect 58 0 59 0;
#X connect 59 0 57 1;
#X connect 59 0 60 1;
#X connect 60 1 11 0;
#X connect 60 1 85 0;
#X connect 61 0 36 1;
#X connect 62 0 58 0;
#X connect 63 0 91 0;
#X connect 63 0 92 0;
#X connect 64 0 90 0;
#X connect 64 0 93 0;
#X connect 65 0 57 0;
#X connect 66 0 60 0;
#X connect 67 0 1 1;
#X connect 68 0 69 0;
#X connect 69 0 89 0;
#X connect 70 0 68 0;
#X connect 71 0 80 0;
#X connect 72 0 74 0;
#X connect 72 0 75 0;
#X connect 73 0 76 1;
#X connect 73 0 77 0;
#X connect 74 0 76 0;
#X connect 75 0 86 0;
#X connect 76 0 86 0;
#X connect 77 0 78 0;
#X connect 78 0 75 1;
#X connect 80 0 81 0;
#X connect 81 0 69 1;
#X connect 82 0 32 0;
#X connect 83 0 31 0;
#X connect 86 0 70 0;
#X connect 86 1 70 1;
#X connect 87 0 88 1;
#X connect 88 0 16 0;
#X connect 89 0 87 0;
#X connect 90 0 84 0;
#X connect 91 0 85 0;
#X connect 92 0 84 0;
#X connect 93 0 85 0;
#X coords 0 -1 1 1 180 350 2 100 100;
#X restore 40 17 pd westcoast-synth;
