#N canvas 687 124 306 284 12;
#N canvas 1460 111 828 699 mobmuplat_ctl 0;
#X obj 25 17 receive fromGUI;
#X obj 25 45 list trim;
#X obj 26 70 route /XYPad;
#X obj 26 98 route touch;
#X obj 26 131 outlet;
#X obj 167 22 receive fromSystem;
#X obj 167 49 list trim;
#X obj 167 76 route /tilts;
#X obj 167 103 unpack 0 0;
#X obj 234 158 expr ($f1+1)*0.5;
#X obj 167 128 expr ($f1+1)*0.5;
#X obj 167 205 s tiltx;
#X obj 234 205 s tilty;
#X connect 0 0 1 0;
#X connect 1 0 2 0;
#X connect 2 0 3 0;
#X connect 3 0 4 0;
#X connect 5 0 6 0;
#X connect 6 0 7 0;
#X connect 7 0 8 0;
#X connect 8 0 10 0;
#X connect 8 1 9 0;
#X connect 9 0 12 0;
#X connect 10 0 11 0;
#X restore 23 36 pd mobmuplat_ctl;
#X obj 179 149 dac~;
#X obj 179 95 catch~ out;
#N canvas 633 332 215 236 reverb 0;
#X obj 64 111 rev1~;
#X obj 132 41 loadbang;
#X obj 9 22 inlet~;
#X obj 9 170 outlet~;
#X obj 9 98 *~ 0.3;
#X obj 9 143 clip~ -0.999 0.999;
#X msg 132 66 40;
#X obj 64 77 *~ 0.3;
#X connect 0 0 5 0;
#X connect 1 0 6 0;
#X connect 2 0 4 0;
#X connect 2 0 7 0;
#X connect 4 0 5 0;
#X connect 5 0 3 0;
#X connect 6 0 0 1;
#X connect 7 0 0 0;
#X restore 179 122 pd reverb;
#N canvas 1118 108 444 493 voice 0;
#X obj 55 72 unpack 0 0 0;
#X obj 87 258 line~;
#X obj 143 427 throw~ out;
#X obj 55 43 inlet;
#X obj 143 292 osc~;
#X obj 143 330 *~;
#X obj 143 142 f;
#X obj 55 177 sel 2;
#X obj 65 122 sel 1;
#X msg 65 147 bang;
#X obj 87 203 sel 0;
#X msg 87 230 0 10;
#X obj 143 396 expr~ sin($v1);
#X text 15 7 touch [0 \, 1 lub 2];
#X text 138 7 freq [0 - 1];
#X text 230 6 vol [0 - 1];
#X obj 192 109 expr $f1*1;
#X obj 143 246 mtof;
#X msg 192 139 \$1 10;
#X obj 143 169 expr ($f1*44)+50;
#X obj 224 241 r tilty;
#X obj 292 241 r tiltx;
#X msg 224 296 \$1 10;
#X obj 224 326 line~;
#X obj 143 362 *~;
#X obj 224 269 * 15;
#X connect 0 0 7 0;
#X connect 0 0 8 0;
#X connect 0 1 6 1;
#X connect 0 2 16 0;
#X connect 1 0 5 1;
#X connect 3 0 0 0;
#X connect 4 0 5 0;
#X connect 5 0 24 0;
#X connect 6 0 19 0;
#X connect 7 1 10 0;
#X connect 8 0 9 0;
#X connect 9 0 6 0;
#X connect 10 0 11 0;
#X connect 11 0 1 0;
#X connect 12 0 2 0;
#X connect 16 0 18 0;
#X connect 17 0 4 0;
#X connect 18 0 1 0;
#X connect 19 0 17 0;
#X connect 20 0 25 0;
#X connect 22 0 23 0;
#X connect 23 0 24 1;
#X connect 24 0 12 0;
#X connect 25 0 22 0;
#X restore 23 97 pd voice;
#X obj 23 70 route 0 1 2 3;
#N canvas 1118 108 444 493 voice 0;
#X obj 55 72 unpack 0 0 0;
#X obj 87 258 line~;
#X obj 143 427 throw~ out;
#X obj 55 43 inlet;
#X obj 143 292 osc~;
#X obj 143 330 *~;
#X obj 143 142 f;
#X obj 55 177 sel 2;
#X obj 65 122 sel 1;
#X msg 65 147 bang;
#X obj 87 203 sel 0;
#X msg 87 230 0 10;
#X obj 143 396 expr~ sin($v1);
#X text 15 7 touch [0 \, 1 lub 2];
#X text 138 7 freq [0 - 1];
#X text 230 6 vol [0 - 1];
#X obj 192 109 expr $f1*1;
#X obj 143 246 mtof;
#X msg 192 139 \$1 10;
#X obj 143 169 expr ($f1*44)+50;
#X obj 224 241 r tilty;
#X obj 292 241 r tiltx;
#X msg 224 296 \$1 10;
#X obj 224 326 line~;
#X obj 143 362 *~;
#X obj 224 269 * 15;
#X connect 0 0 7 0;
#X connect 0 0 8 0;
#X connect 0 1 6 1;
#X connect 0 2 16 0;
#X connect 1 0 5 1;
#X connect 3 0 0 0;
#X connect 4 0 5 0;
#X connect 5 0 24 0;
#X connect 6 0 19 0;
#X connect 7 1 10 0;
#X connect 8 0 9 0;
#X connect 9 0 6 0;
#X connect 10 0 11 0;
#X connect 11 0 1 0;
#X connect 12 0 2 0;
#X connect 16 0 18 0;
#X connect 17 0 4 0;
#X connect 18 0 1 0;
#X connect 19 0 17 0;
#X connect 20 0 25 0;
#X connect 22 0 23 0;
#X connect 23 0 24 1;
#X connect 24 0 12 0;
#X connect 25 0 22 0;
#X restore 45 121 pd voice;
#N canvas 1118 108 444 493 voice 0;
#X obj 55 72 unpack 0 0 0;
#X obj 87 258 line~;
#X obj 143 427 throw~ out;
#X obj 55 43 inlet;
#X obj 143 292 osc~;
#X obj 143 330 *~;
#X obj 143 142 f;
#X obj 55 177 sel 2;
#X obj 65 122 sel 1;
#X msg 65 147 bang;
#X obj 87 203 sel 0;
#X msg 87 230 0 10;
#X obj 143 396 expr~ sin($v1);
#X text 15 7 touch [0 \, 1 lub 2];
#X text 138 7 freq [0 - 1];
#X text 230 6 vol [0 - 1];
#X obj 192 109 expr $f1*1;
#X obj 143 246 mtof;
#X msg 192 139 \$1 10;
#X obj 143 169 expr ($f1*44)+50;
#X obj 224 241 r tilty;
#X obj 292 241 r tiltx;
#X msg 224 296 \$1 10;
#X obj 224 326 line~;
#X obj 143 362 *~;
#X obj 224 269 * 15;
#X connect 0 0 7 0;
#X connect 0 0 8 0;
#X connect 0 1 6 1;
#X connect 0 2 16 0;
#X connect 1 0 5 1;
#X connect 3 0 0 0;
#X connect 4 0 5 0;
#X connect 5 0 24 0;
#X connect 6 0 19 0;
#X connect 7 1 10 0;
#X connect 8 0 9 0;
#X connect 9 0 6 0;
#X connect 10 0 11 0;
#X connect 11 0 1 0;
#X connect 12 0 2 0;
#X connect 16 0 18 0;
#X connect 17 0 4 0;
#X connect 18 0 1 0;
#X connect 19 0 17 0;
#X connect 20 0 25 0;
#X connect 22 0 23 0;
#X connect 23 0 24 1;
#X connect 24 0 12 0;
#X connect 25 0 22 0;
#X restore 67 145 pd voice;
#N canvas 1118 108 444 493 voice 0;
#X obj 55 72 unpack 0 0 0;
#X obj 87 258 line~;
#X obj 143 427 throw~ out;
#X obj 55 43 inlet;
#X obj 143 292 osc~;
#X obj 143 330 *~;
#X obj 143 142 f;
#X obj 55 177 sel 2;
#X obj 65 122 sel 1;
#X msg 65 147 bang;
#X obj 87 203 sel 0;
#X msg 87 230 0 10;
#X obj 143 396 expr~ sin($v1);
#X text 15 7 touch [0 \, 1 lub 2];
#X text 138 7 freq [0 - 1];
#X text 230 6 vol [0 - 1];
#X obj 192 109 expr $f1*1;
#X obj 143 246 mtof;
#X msg 192 139 \$1 10;
#X obj 143 169 expr ($f1*44)+50;
#X obj 224 241 r tilty;
#X obj 292 241 r tiltx;
#X msg 224 296 \$1 10;
#X obj 224 326 line~;
#X obj 143 362 *~;
#X obj 224 269 * 15;
#X connect 0 0 7 0;
#X connect 0 0 8 0;
#X connect 0 1 6 1;
#X connect 0 2 16 0;
#X connect 1 0 5 1;
#X connect 3 0 0 0;
#X connect 4 0 5 0;
#X connect 5 0 24 0;
#X connect 6 0 19 0;
#X connect 7 1 10 0;
#X connect 8 0 9 0;
#X connect 9 0 6 0;
#X connect 10 0 11 0;
#X connect 11 0 1 0;
#X connect 12 0 2 0;
#X connect 16 0 18 0;
#X connect 17 0 4 0;
#X connect 18 0 1 0;
#X connect 19 0 17 0;
#X connect 20 0 25 0;
#X connect 22 0 23 0;
#X connect 23 0 24 1;
#X connect 24 0 12 0;
#X connect 25 0 22 0;
#X restore 89 169 pd voice;
#X connect 0 0 5 0;
#X connect 2 0 3 0;
#X connect 3 0 1 1;
#X connect 3 0 1 0;
#X connect 5 0 4 0;
#X connect 5 1 6 0;
#X connect 5 2 7 0;
#X connect 5 3 8 0;
