#N canvas 1167 352 494 456 12;
#N canvas 452 33 664 318 mobmuplat_ctl 0;
#X obj 26 18 receive fromGUI;
#X obj 26 46 list trim;
#X obj 26 99 route touch;
#X obj 439 11 receive fromSystem;
#X obj 439 38 list trim;
#X obj 439 65 route /tilts;
#X obj 439 92 unpack 0 0;
#X obj 506 147 expr ($f1+1)*0.5;
#X obj 439 117 expr ($f1+1)*0.5;
#X obj 439 194 s tiltx;
#X obj 506 194 s tilty;
#X obj 91 132 s slide;
#X obj 26 132 s touch;
#X obj 26 71 route /XYPad /slide /feedback /del-mix;
#X obj 157 132 s feedback;
#X obj 223 102 s del-mix;
#X obj 347 41 loadbang;
#X msg 347 64 0;
#X obj 293 220 s toGUI;
#X obj 293 171 loadbang;
#X msg 293 195 list /slide 1;
#X obj 35 182 route /ringmod /change;
#X obj 110 206 s change-rm;
#X obj 35 206 s ringmod;
#X connect 0 0 1 0;
#X connect 1 0 13 0;
#X connect 2 0 12 0;
#X connect 3 0 4 0;
#X connect 4 0 5 0;
#X connect 5 0 6 0;
#X connect 6 0 8 0;
#X connect 6 1 7 0;
#X connect 7 0 10 0;
#X connect 8 0 9 0;
#X connect 13 0 2 0;
#X connect 13 1 11 0;
#X connect 13 2 14 0;
#X connect 13 3 15 0;
#X connect 13 4 21 0;
#X connect 16 0 17 0;
#X connect 17 0 9 0;
#X connect 17 0 10 0;
#X connect 17 0 15 0;
#X connect 17 0 14 0;
#X connect 17 0 11 0;
#X connect 19 0 20 0;
#X connect 20 0 18 0;
#X connect 21 0 23 0;
#X connect 21 1 22 0;
#X restore 23 36 pd mobmuplat_ctl;
#X obj 179 197 dac~;
#X obj 179 95 catch~ out;
#N canvas 633 332 215 236 reverb 0;
#X obj 64 111 rev1~;
#X obj 132 41 loadbang;
#X obj 9 22 inlet~;
#X obj 9 170 outlet~;
#X obj 9 98 *~ 0.3;
#X obj 9 143 clip~ -0.999 0.999;
#X msg 132 66 40;
#X obj 64 77 *~ 0.3;
#X connect 0 0 5 0;
#X connect 1 0 6 0;
#X connect 2 0 4 0;
#X connect 2 0 7 0;
#X connect 4 0 5 0;
#X connect 5 0 3 0;
#X connect 6 0 0 1;
#X connect 7 0 0 0;
#X restore 179 122 pd reverb;
#X obj 22 74 r touch;
#N canvas 1635 476 833 647 voice 0;
#X obj 55 72 unpack 0 0 0;
#X obj 87 278 line~;
#X obj 273 553 throw~ out;
#X obj 143 322 osc~;
#X obj 143 348 *~;
#X obj 78 152 f;
#X obj 55 197 sel 2;
#X obj 65 102 sel 1;
#X msg 65 127 bang;
#X obj 87 223 sel 0;
#X msg 87 250 0 10;
#X obj 143 406 expr~ sin($v1);
#X text 15 7 touch [0 \, 1 lub 2];
#X text 138 7 freq [0 - 1];
#X text 230 6 vol [0 - 1];
#X obj 136 114 expr $f1*1;
#X obj 143 245 mtof;
#X msg 136 144 \$1 10;
#X obj 244 251 r tilty;
#X obj 310 251 r tiltx;
#X msg 244 306 \$1 10;
#X obj 244 336 line~;
#X obj 143 376 *~;
#X obj 388 289 noise~;
#X obj 310 410 line~;
#X msg 474 355 \$1 10;
#X obj 474 385 line~;
#X obj 310 283 *;
#X obj 143 440 *~;
#X obj 474 305 expr 1 - $f1;
#X obj 474 330 *;
#X obj 388 413 *~;
#X obj 388 361 *~;
#X msg 310 380 \$1 10;
#X obj 388 475 expr~ sin($v1);
#X obj 388 441 *~;
#X obj 388 386 *~ 20;
#X obj 55 43 inlet;
#X obj 244 279 * 8;
#X obj 235 117 r slide;
#X obj 143 189 spigot;
#X obj 196 189 spigot;
#X obj 235 141 - 1;
#X obj 235 165 abs;
#X obj 143 298 line~;
#X msg 143 272 \$1 8;
#X obj 218 67 loadbang;
#X msg 218 92 1;
#X obj 434 210 loadbang;
#X msg 434 234 300;
#X obj 388 337 vcf~;
#X obj 143 219 expr ($f1*60)+40;
#X obj 400 312 r \$0-nt;
#X obj 181 270 s \$0-nt;
#X obj 36 174 s \$0-choose;
#X obj 577 276 r \$0-choose;
#X obj 577 357 random 60;
#X obj 577 381 + 30;
#X obj 577 405 mtof;
#X obj 577 429 osc~;
#X obj 577 330 spigot;
#X obj 616 303 r change-rm;
#X obj 634 328 loadbang;
#X obj 273 527 *~;
#X obj 577 481 +~ 1;
#X obj 577 457 *~;
#X obj 624 398 r ringmod;
#X obj 624 422 / 2;
#X connect 0 0 6 0;
#X connect 0 0 7 0;
#X connect 0 1 5 1;
#X connect 0 1 41 0;
#X connect 0 2 15 0;
#X connect 1 0 4 1;
#X connect 1 0 32 1;
#X connect 3 0 4 0;
#X connect 4 0 22 0;
#X connect 5 0 40 0;
#X connect 6 1 9 0;
#X connect 7 0 8 0;
#X connect 8 0 5 0;
#X connect 8 0 54 0;
#X connect 9 0 10 0;
#X connect 10 0 1 0;
#X connect 11 0 28 0;
#X connect 15 0 17 0;
#X connect 16 0 45 0;
#X connect 16 0 53 0;
#X connect 17 0 1 0;
#X connect 18 0 38 0;
#X connect 19 0 27 0;
#X connect 19 0 27 1;
#X connect 19 0 29 0;
#X connect 20 0 21 0;
#X connect 21 0 22 1;
#X connect 21 0 35 1;
#X connect 22 0 11 0;
#X connect 23 0 50 0;
#X connect 24 0 28 1;
#X connect 25 0 26 0;
#X connect 26 0 31 1;
#X connect 27 0 33 0;
#X connect 28 0 63 0;
#X connect 29 0 30 0;
#X connect 29 0 30 1;
#X connect 30 0 25 0;
#X connect 31 0 35 0;
#X connect 32 0 36 0;
#X connect 33 0 24 0;
#X connect 34 0 63 0;
#X connect 35 0 34 0;
#X connect 36 0 31 0;
#X connect 37 0 0 0;
#X connect 38 0 20 0;
#X connect 39 0 40 1;
#X connect 39 0 42 0;
#X connect 40 0 51 0;
#X connect 41 0 51 0;
#X connect 42 0 43 0;
#X connect 43 0 41 1;
#X connect 44 0 3 0;
#X connect 45 0 44 0;
#X connect 46 0 47 0;
#X connect 47 0 40 1;
#X connect 47 0 42 0;
#X connect 48 0 49 0;
#X connect 49 0 50 2;
#X connect 50 0 32 0;
#X connect 51 0 16 0;
#X connect 52 0 50 1;
#X connect 55 0 60 0;
#X connect 56 0 57 0;
#X connect 57 0 58 0;
#X connect 58 0 59 0;
#X connect 59 0 65 0;
#X connect 60 0 56 0;
#X connect 61 0 60 1;
#X connect 62 0 56 0;
#X connect 63 0 2 0;
#X connect 64 0 63 1;
#X connect 65 0 64 0;
#X connect 66 0 67 0;
#X connect 67 0 65 1;
#X restore 22 138 pd voice;
#N canvas 1443 183 435 470 delay 0;
#X obj 44 273 *~;
#X obj 232 273 *~;
#X obj 34 242 delread4~ ndelL;
#X obj 222 242 delread4~ ndelR;
#X obj 34 305 *~;
#X obj 222 305 *~;
#X obj 310 134 osc~ 0.1;
#X obj 125 134 osc~ 0.15;
#X obj 125 160 *~ 3;
#X obj 310 157 *~ 3;
#X obj 84 273 lop~ 3000;
#X obj 272 273 lop~ 3000;
#X obj 310 183 +~ 500;
#X obj 125 184 +~ 375;
#X obj 32 211 delwrite~ ndelL 375;
#X obj 221 211 delwrite~ ndelR 500;
#X obj 34 352 outlet~;
#X obj 222 352 outlet~;
#X obj 30 24 inlet~;
#X obj 122 58 r feedback;
#X obj 206 58 r del-mix;
#X obj 75 321 *~ 0.1;
#X obj 84 297 *~ 0.9;
#X obj 280 297 *~ 0.9;
#X obj 259 320 *~ 0.1;
#X connect 0 0 10 0;
#X connect 1 0 11 0;
#X connect 2 0 0 0;
#X connect 2 0 4 0;
#X connect 3 0 1 0;
#X connect 3 0 5 0;
#X connect 4 0 16 0;
#X connect 5 0 17 0;
#X connect 6 0 9 0;
#X connect 7 0 8 0;
#X connect 8 0 13 0;
#X connect 9 0 12 0;
#X connect 10 0 21 0;
#X connect 10 0 22 0;
#X connect 11 0 23 0;
#X connect 11 0 24 0;
#X connect 12 0 3 0;
#X connect 13 0 2 0;
#X connect 18 0 14 0;
#X connect 18 0 15 0;
#X connect 19 0 1 1;
#X connect 19 0 0 1;
#X connect 20 0 5 1;
#X connect 20 0 4 1;
#X connect 21 0 15 0;
#X connect 22 0 14 0;
#X connect 23 0 15 0;
#X connect 24 0 14 0;
#X restore 254 122 pd delay;
#N canvas 0 22 389 203 limit 0;
#X obj 63 49 +~;
#X obj 63 75 expr~ tanh($v1);
#X obj 192 49 +~;
#X obj 192 75 expr~ tanh($v1);
#X obj 63 23 inlet~;
#X obj 192 23 inlet~;
#X obj 63 99 outlet~;
#X obj 192 99 outlet~;
#X connect 0 0 1 0;
#X connect 1 0 6 0;
#X connect 2 0 3 0;
#X connect 3 0 7 0;
#X connect 4 0 0 0;
#X connect 5 0 2 0;
#X restore 179 161 pd limit;
#X obj 22 106 route 0 1 2 3;
#N canvas 1635 476 833 647 voice 0;
#X obj 55 72 unpack 0 0 0;
#X obj 87 278 line~;
#X obj 273 553 throw~ out;
#X obj 143 322 osc~;
#X obj 143 348 *~;
#X obj 78 152 f;
#X obj 55 197 sel 2;
#X obj 65 102 sel 1;
#X msg 65 127 bang;
#X obj 87 223 sel 0;
#X msg 87 250 0 10;
#X obj 143 406 expr~ sin($v1);
#X text 15 7 touch [0 \, 1 lub 2];
#X text 138 7 freq [0 - 1];
#X text 230 6 vol [0 - 1];
#X obj 136 114 expr $f1*1;
#X obj 143 245 mtof;
#X msg 136 144 \$1 10;
#X obj 244 251 r tilty;
#X obj 310 251 r tiltx;
#X msg 244 306 \$1 10;
#X obj 244 336 line~;
#X obj 143 376 *~;
#X obj 388 289 noise~;
#X obj 310 410 line~;
#X msg 474 355 \$1 10;
#X obj 474 385 line~;
#X obj 310 283 *;
#X obj 143 440 *~;
#X obj 474 305 expr 1 - $f1;
#X obj 474 330 *;
#X obj 388 413 *~;
#X obj 388 361 *~;
#X msg 310 380 \$1 10;
#X obj 388 475 expr~ sin($v1);
#X obj 388 441 *~;
#X obj 388 386 *~ 20;
#X obj 55 43 inlet;
#X obj 244 279 * 8;
#X obj 235 117 r slide;
#X obj 143 189 spigot;
#X obj 196 189 spigot;
#X obj 235 141 - 1;
#X obj 235 165 abs;
#X obj 143 298 line~;
#X msg 143 272 \$1 8;
#X obj 218 67 loadbang;
#X msg 218 92 1;
#X obj 434 210 loadbang;
#X msg 434 234 300;
#X obj 388 337 vcf~;
#X obj 143 219 expr ($f1*60)+40;
#X obj 400 312 r \$0-nt;
#X obj 181 270 s \$0-nt;
#X obj 36 174 s \$0-choose;
#X obj 577 276 r \$0-choose;
#X obj 577 357 random 60;
#X obj 577 381 + 30;
#X obj 577 405 mtof;
#X obj 577 429 osc~;
#X obj 577 330 spigot;
#X obj 616 303 r change-rm;
#X obj 634 328 loadbang;
#X obj 273 527 *~;
#X obj 577 481 +~ 1;
#X obj 577 457 *~;
#X obj 624 398 r ringmod;
#X obj 624 422 / 2;
#X connect 0 0 6 0;
#X connect 0 0 7 0;
#X connect 0 1 5 1;
#X connect 0 1 41 0;
#X connect 0 2 15 0;
#X connect 1 0 4 1;
#X connect 1 0 32 1;
#X connect 3 0 4 0;
#X connect 4 0 22 0;
#X connect 5 0 40 0;
#X connect 6 1 9 0;
#X connect 7 0 8 0;
#X connect 8 0 5 0;
#X connect 8 0 54 0;
#X connect 9 0 10 0;
#X connect 10 0 1 0;
#X connect 11 0 28 0;
#X connect 15 0 17 0;
#X connect 16 0 45 0;
#X connect 16 0 53 0;
#X connect 17 0 1 0;
#X connect 18 0 38 0;
#X connect 19 0 27 0;
#X connect 19 0 27 1;
#X connect 19 0 29 0;
#X connect 20 0 21 0;
#X connect 21 0 22 1;
#X connect 21 0 35 1;
#X connect 22 0 11 0;
#X connect 23 0 50 0;
#X connect 24 0 28 1;
#X connect 25 0 26 0;
#X connect 26 0 31 1;
#X connect 27 0 33 0;
#X connect 28 0 63 0;
#X connect 29 0 30 0;
#X connect 29 0 30 1;
#X connect 30 0 25 0;
#X connect 31 0 35 0;
#X connect 32 0 36 0;
#X connect 33 0 24 0;
#X connect 34 0 63 0;
#X connect 35 0 34 0;
#X connect 36 0 31 0;
#X connect 37 0 0 0;
#X connect 38 0 20 0;
#X connect 39 0 40 1;
#X connect 39 0 42 0;
#X connect 40 0 51 0;
#X connect 41 0 51 0;
#X connect 42 0 43 0;
#X connect 43 0 41 1;
#X connect 44 0 3 0;
#X connect 45 0 44 0;
#X connect 46 0 47 0;
#X connect 47 0 40 1;
#X connect 47 0 42 0;
#X connect 48 0 49 0;
#X connect 49 0 50 2;
#X connect 50 0 32 0;
#X connect 51 0 16 0;
#X connect 52 0 50 1;
#X connect 55 0 60 0;
#X connect 56 0 57 0;
#X connect 57 0 58 0;
#X connect 58 0 59 0;
#X connect 59 0 65 0;
#X connect 60 0 56 0;
#X connect 61 0 60 1;
#X connect 62 0 56 0;
#X connect 63 0 2 0;
#X connect 64 0 63 1;
#X connect 65 0 64 0;
#X connect 66 0 67 0;
#X connect 67 0 65 1;
#X restore 44 168 pd voice;
#N canvas 1635 476 833 647 voice 0;
#X obj 55 72 unpack 0 0 0;
#X obj 87 278 line~;
#X obj 273 553 throw~ out;
#X obj 143 322 osc~;
#X obj 143 348 *~;
#X obj 78 152 f;
#X obj 55 197 sel 2;
#X obj 65 102 sel 1;
#X msg 65 127 bang;
#X obj 87 223 sel 0;
#X msg 87 250 0 10;
#X obj 143 406 expr~ sin($v1);
#X text 15 7 touch [0 \, 1 lub 2];
#X text 138 7 freq [0 - 1];
#X text 230 6 vol [0 - 1];
#X obj 136 114 expr $f1*1;
#X obj 143 245 mtof;
#X msg 136 144 \$1 10;
#X obj 244 251 r tilty;
#X obj 310 251 r tiltx;
#X msg 244 306 \$1 10;
#X obj 244 336 line~;
#X obj 143 376 *~;
#X obj 388 289 noise~;
#X obj 310 410 line~;
#X msg 474 355 \$1 10;
#X obj 474 385 line~;
#X obj 310 283 *;
#X obj 143 440 *~;
#X obj 474 305 expr 1 - $f1;
#X obj 474 330 *;
#X obj 388 413 *~;
#X obj 388 361 *~;
#X msg 310 380 \$1 10;
#X obj 388 475 expr~ sin($v1);
#X obj 388 441 *~;
#X obj 388 386 *~ 20;
#X obj 55 43 inlet;
#X obj 244 279 * 8;
#X obj 235 117 r slide;
#X obj 143 189 spigot;
#X obj 196 189 spigot;
#X obj 235 141 - 1;
#X obj 235 165 abs;
#X obj 143 298 line~;
#X msg 143 272 \$1 8;
#X obj 218 67 loadbang;
#X msg 218 92 1;
#X obj 434 210 loadbang;
#X msg 434 234 300;
#X obj 388 337 vcf~;
#X obj 143 219 expr ($f1*60)+40;
#X obj 400 312 r \$0-nt;
#X obj 181 270 s \$0-nt;
#X obj 36 174 s \$0-choose;
#X obj 577 276 r \$0-choose;
#X obj 577 357 random 60;
#X obj 577 381 + 30;
#X obj 577 405 mtof;
#X obj 577 429 osc~;
#X obj 577 330 spigot;
#X obj 616 303 r change-rm;
#X obj 634 328 loadbang;
#X obj 273 527 *~;
#X obj 577 481 +~ 1;
#X obj 577 457 *~;
#X obj 624 398 r ringmod;
#X obj 624 422 / 2;
#X connect 0 0 6 0;
#X connect 0 0 7 0;
#X connect 0 1 5 1;
#X connect 0 1 41 0;
#X connect 0 2 15 0;
#X connect 1 0 4 1;
#X connect 1 0 32 1;
#X connect 3 0 4 0;
#X connect 4 0 22 0;
#X connect 5 0 40 0;
#X connect 6 1 9 0;
#X connect 7 0 8 0;
#X connect 8 0 5 0;
#X connect 8 0 54 0;
#X connect 9 0 10 0;
#X connect 10 0 1 0;
#X connect 11 0 28 0;
#X connect 15 0 17 0;
#X connect 16 0 45 0;
#X connect 16 0 53 0;
#X connect 17 0 1 0;
#X connect 18 0 38 0;
#X connect 19 0 27 0;
#X connect 19 0 27 1;
#X connect 19 0 29 0;
#X connect 20 0 21 0;
#X connect 21 0 22 1;
#X connect 21 0 35 1;
#X connect 22 0 11 0;
#X connect 23 0 50 0;
#X connect 24 0 28 1;
#X connect 25 0 26 0;
#X connect 26 0 31 1;
#X connect 27 0 33 0;
#X connect 28 0 63 0;
#X connect 29 0 30 0;
#X connect 29 0 30 1;
#X connect 30 0 25 0;
#X connect 31 0 35 0;
#X connect 32 0 36 0;
#X connect 33 0 24 0;
#X connect 34 0 63 0;
#X connect 35 0 34 0;
#X connect 36 0 31 0;
#X connect 37 0 0 0;
#X connect 38 0 20 0;
#X connect 39 0 40 1;
#X connect 39 0 42 0;
#X connect 40 0 51 0;
#X connect 41 0 51 0;
#X connect 42 0 43 0;
#X connect 43 0 41 1;
#X connect 44 0 3 0;
#X connect 45 0 44 0;
#X connect 46 0 47 0;
#X connect 47 0 40 1;
#X connect 47 0 42 0;
#X connect 48 0 49 0;
#X connect 49 0 50 2;
#X connect 50 0 32 0;
#X connect 51 0 16 0;
#X connect 52 0 50 1;
#X connect 55 0 60 0;
#X connect 56 0 57 0;
#X connect 57 0 58 0;
#X connect 58 0 59 0;
#X connect 59 0 65 0;
#X connect 60 0 56 0;
#X connect 61 0 60 1;
#X connect 62 0 56 0;
#X connect 63 0 2 0;
#X connect 64 0 63 1;
#X connect 65 0 64 0;
#X connect 66 0 67 0;
#X connect 67 0 65 1;
#X restore 66 198 pd voice;
#N canvas 1635 476 833 647 voice 0;
#X obj 55 72 unpack 0 0 0;
#X obj 87 278 line~;
#X obj 273 553 throw~ out;
#X obj 143 322 osc~;
#X obj 143 348 *~;
#X obj 78 152 f;
#X obj 55 197 sel 2;
#X obj 65 102 sel 1;
#X msg 65 127 bang;
#X obj 87 223 sel 0;
#X msg 87 250 0 10;
#X obj 143 406 expr~ sin($v1);
#X text 15 7 touch [0 \, 1 lub 2];
#X text 138 7 freq [0 - 1];
#X text 230 6 vol [0 - 1];
#X obj 136 114 expr $f1*1;
#X obj 143 245 mtof;
#X msg 136 144 \$1 10;
#X obj 244 251 r tilty;
#X obj 310 251 r tiltx;
#X msg 244 306 \$1 10;
#X obj 244 336 line~;
#X obj 143 376 *~;
#X obj 388 289 noise~;
#X obj 310 410 line~;
#X msg 474 355 \$1 10;
#X obj 474 385 line~;
#X obj 310 283 *;
#X obj 143 440 *~;
#X obj 474 305 expr 1 - $f1;
#X obj 474 330 *;
#X obj 388 413 *~;
#X obj 388 361 *~;
#X msg 310 380 \$1 10;
#X obj 388 475 expr~ sin($v1);
#X obj 388 441 *~;
#X obj 388 386 *~ 20;
#X obj 55 43 inlet;
#X obj 244 279 * 8;
#X obj 235 117 r slide;
#X obj 143 189 spigot;
#X obj 196 189 spigot;
#X obj 235 141 - 1;
#X obj 235 165 abs;
#X obj 143 298 line~;
#X msg 143 272 \$1 8;
#X obj 218 67 loadbang;
#X msg 218 92 1;
#X obj 434 210 loadbang;
#X msg 434 234 300;
#X obj 388 337 vcf~;
#X obj 143 219 expr ($f1*60)+40;
#X obj 400 312 r \$0-nt;
#X obj 181 270 s \$0-nt;
#X obj 36 174 s \$0-choose;
#X obj 577 276 r \$0-choose;
#X obj 577 357 random 60;
#X obj 577 381 + 30;
#X obj 577 405 mtof;
#X obj 577 429 osc~;
#X obj 577 330 spigot;
#X obj 616 303 r change-rm;
#X obj 634 328 loadbang;
#X obj 273 527 *~;
#X obj 577 481 +~ 1;
#X obj 577 457 *~;
#X obj 624 398 r ringmod;
#X obj 624 422 / 2;
#X connect 0 0 6 0;
#X connect 0 0 7 0;
#X connect 0 1 5 1;
#X connect 0 1 41 0;
#X connect 0 2 15 0;
#X connect 1 0 4 1;
#X connect 1 0 32 1;
#X connect 3 0 4 0;
#X connect 4 0 22 0;
#X connect 5 0 40 0;
#X connect 6 1 9 0;
#X connect 7 0 8 0;
#X connect 8 0 5 0;
#X connect 8 0 54 0;
#X connect 9 0 10 0;
#X connect 10 0 1 0;
#X connect 11 0 28 0;
#X connect 15 0 17 0;
#X connect 16 0 45 0;
#X connect 16 0 53 0;
#X connect 17 0 1 0;
#X connect 18 0 38 0;
#X connect 19 0 27 0;
#X connect 19 0 27 1;
#X connect 19 0 29 0;
#X connect 20 0 21 0;
#X connect 21 0 22 1;
#X connect 21 0 35 1;
#X connect 22 0 11 0;
#X connect 23 0 50 0;
#X connect 24 0 28 1;
#X connect 25 0 26 0;
#X connect 26 0 31 1;
#X connect 27 0 33 0;
#X connect 28 0 63 0;
#X connect 29 0 30 0;
#X connect 29 0 30 1;
#X connect 30 0 25 0;
#X connect 31 0 35 0;
#X connect 32 0 36 0;
#X connect 33 0 24 0;
#X connect 34 0 63 0;
#X connect 35 0 34 0;
#X connect 36 0 31 0;
#X connect 37 0 0 0;
#X connect 38 0 20 0;
#X connect 39 0 40 1;
#X connect 39 0 42 0;
#X connect 40 0 51 0;
#X connect 41 0 51 0;
#X connect 42 0 43 0;
#X connect 43 0 41 1;
#X connect 44 0 3 0;
#X connect 45 0 44 0;
#X connect 46 0 47 0;
#X connect 47 0 40 1;
#X connect 47 0 42 0;
#X connect 48 0 49 0;
#X connect 49 0 50 2;
#X connect 50 0 32 0;
#X connect 51 0 16 0;
#X connect 52 0 50 1;
#X connect 55 0 60 0;
#X connect 56 0 57 0;
#X connect 57 0 58 0;
#X connect 58 0 59 0;
#X connect 59 0 65 0;
#X connect 60 0 56 0;
#X connect 61 0 60 1;
#X connect 62 0 56 0;
#X connect 63 0 2 0;
#X connect 64 0 63 1;
#X connect 65 0 64 0;
#X connect 66 0 67 0;
#X connect 67 0 65 1;
#X restore 88 228 pd voice;
#X connect 2 0 3 0;
#X connect 2 0 6 0;
#X connect 3 0 7 0;
#X connect 3 0 7 1;
#X connect 4 0 8 0;
#X connect 6 0 7 0;
#X connect 6 1 7 1;
#X connect 7 0 1 0;
#X connect 7 1 1 1;
#X connect 8 0 5 0;
#X connect 8 1 9 0;
#X connect 8 2 10 0;
#X connect 8 3 11 0;
