#N canvas 196 80 1037 589 12;
#X obj 28 241 readsf~ 2;
#X obj 28 272 dac~;
#X msg 43 212 1;
#X msg 80 212 0;
#X obj 96 271 bng 15 250 50 0 empty empty empty 17 7 0 10 -262144 -1
-1;
#X msg 27 105 open /Volumes/Audio/Projekty/Cage-Joyce/Samples-Piano/chord-05.wav
\, 1, f 61;
#X msg 57 156 open /Volumes/Audio/Projekty/Cage-Joyce/Samples-Piano/chord-04.wav
\, 1, f 61;
#X obj 27 7 tgl 15 0 empty empty empty 17 7 0 10 -262144 -1 -1 0 1
;
#X obj 27 27 metro 3000;
#X obj 27 50 random 2;
#X obj 27 73 route 0 1;
#X obj 114 33 random 3000;
#X obj 114 56 + 1000;
#X obj 111 246 rev1~;
#X msg 131 213 2;
#X connect 0 0 1 0;
#X connect 0 0 13 0;
#X connect 0 1 1 1;
#X connect 0 2 4 0;
#X connect 2 0 0 0;
#X connect 3 0 0 0;
#X connect 5 0 0 0;
#X connect 6 0 0 0;
#X connect 7 0 8 0;
#X connect 8 0 9 0;
#X connect 8 0 11 0;
#X connect 9 0 10 0;
#X connect 10 0 5 0;
#X connect 10 1 6 0;
#X connect 11 0 12 0;
#X connect 12 0 8 1;
#X connect 13 0 1 1;
#X connect 13 0 1 0;
#X connect 14 0 13 1;
