#N canvas 908 111 774 470 12;
#X text 425 20 loop duration;
#X obj 263 310 *~;
#X obj 380 310 *~;
#X obj 263 358 +~;
#X floatatom 380 68 0 0 0 0 - - -;
#X obj 383 42 hsl 128 15 20 4000 0 0 empty empty empty -2 -8 0 10 -262130
-1 -1 0 0;
#X obj 143 190 *~;
#X floatatom 161 92 5 0 1 0 - - -;
#X obj 263 388 dac~;
#X text 158 20 FEEDBACK/SUSTAIN;
#N canvas 1385 434 450 300 blip 0;
#X obj 142 26 inlet;
#X obj 71 254 outlet~;
#X obj 142 74 line~;
#X obj 71 149 osc~;
#X obj 71 203 sin~;
#X obj 71 177 *~;
#X msg 142 50 1 \, 0 200;
#X obj 71 227 *~ 0.1;
#X obj 71 71 random 40;
#X obj 71 119 mtof;
#X obj 71 95 + 50;
#X obj 142 254 throw~ bufs;
#X connect 0 0 6 0;
#X connect 0 0 8 0;
#X connect 2 0 5 1;
#X connect 3 0 5 0;
#X connect 4 0 7 0;
#X connect 5 0 4 0;
#X connect 6 0 2 0;
#X connect 7 0 1 0;
#X connect 7 0 11 0;
#X connect 8 0 10 0;
#X connect 9 0 3 0;
#X connect 10 0 9 0;
#X restore 26 137 pd blip;
#X obj 26 111 bng 15 250 50 0 empty empty empty 17 7 0 10 -262130 -1
-1;
#X obj 380 208 samphold~;
#X obj 263 208 samphold~;
#X obj 281 98 phasor~ 5;
#X obj 380 98 sig~;
#N canvas 0 23 450 300 player 0;
#X obj 68 151 readsf~ 2;
#X msg 21 87 open /Volumes/Audio/Projekty/Cage-Joyce/Samples-Piano/chord-07.wav
\, 1;
#X obj 69 36 inlet;
#X obj 67 190 outlet~;
#X obj 127 192 throw~ bufs;
#X connect 0 0 3 0;
#X connect 0 0 4 0;
#X connect 1 0 0 0;
#X connect 2 0 1 0;
#X restore 26 81 pd player;
#X obj 26 55 bng 15 250 50 0 empty empty empty 17 7 0 10 -262130 -1
-1;
#X obj 398 180 wrap~;
#X obj 498 310 *~;
#X obj 498 208 samphold~;
#X obj 498 246 delread4~ buff3;
#X obj 516 180 wrap~;
#X obj 516 153 +~ 0.5;
#X obj 616 310 *~;
#X obj 616 208 samphold~;
#X obj 634 180 wrap~;
#X obj 55 298 delwrite~ buff1 4000;
#X obj 55 326 delwrite~ buff2 4000;
#X obj 55 354 delwrite~ buff3 4000;
#X obj 55 382 delwrite~ buff4 4000;
#X obj 143 220 throw~ bufs;
#X obj 40 273 catch~ bufs;
#X obj 263 246 delread4~ buff1;
#X obj 380 246 delread4~ buff2;
#X obj 616 246 delread4~ buff4;
#X obj 398 153 +~ 0.25;
#X obj 634 153 +~ 0.75;
#X obj 161 163 line~;
#X msg 161 139 \$1 100;
#N canvas 1083 552 210 276 hann 0;
#X obj 49 39 inlet~;
#X obj 49 95 cos~;
#X obj 49 67 -~ 0.5;
#X obj 49 123 +~ 1;
#X obj 49 151 *~ 0.5;
#X obj 49 179 outlet~;
#X connect 0 0 2 0;
#X connect 1 0 3 0;
#X connect 2 0 1 0;
#X connect 3 0 4 0;
#X connect 4 0 5 0;
#X restore 281 279 pd hann;
#N canvas 1083 552 210 276 hann 0;
#X obj 49 39 inlet~;
#X obj 49 95 cos~;
#X obj 49 67 -~ 0.5;
#X obj 49 123 +~ 1;
#X obj 49 151 *~ 0.5;
#X obj 49 179 outlet~;
#X connect 0 0 2 0;
#X connect 1 0 3 0;
#X connect 2 0 1 0;
#X connect 3 0 4 0;
#X connect 4 0 5 0;
#X restore 398 281 pd hann;
#N canvas 1083 552 210 276 hann 0;
#X obj 49 39 inlet~;
#X obj 49 95 cos~;
#X obj 49 67 -~ 0.5;
#X obj 49 123 +~ 1;
#X obj 49 151 *~ 0.5;
#X obj 49 179 outlet~;
#X connect 0 0 2 0;
#X connect 1 0 3 0;
#X connect 2 0 1 0;
#X connect 3 0 4 0;
#X connect 4 0 5 0;
#X restore 516 278 pd hann;
#N canvas 1083 552 210 276 hann 0;
#X obj 49 39 inlet~;
#X obj 49 95 cos~;
#X obj 49 67 -~ 0.5;
#X obj 49 123 +~ 1;
#X obj 49 151 *~ 0.5;
#X obj 49 179 outlet~;
#X connect 0 0 2 0;
#X connect 1 0 3 0;
#X connect 2 0 1 0;
#X connect 3 0 4 0;
#X connect 4 0 5 0;
#X restore 634 280 pd hann;
#X obj 161 115 * 0.5;
#X obj 164 42 hsl 128 15 0 1 0 0 empty empty empty -2 -8 0 10 -262130
-1 -1 0 0;
#X connect 1 0 3 0;
#X connect 2 0 3 0;
#X connect 3 0 8 0;
#X connect 3 0 8 1;
#X connect 3 0 6 0;
#X connect 4 0 15 0;
#X connect 5 0 4 0;
#X connect 6 0 31 0;
#X connect 7 0 44 0;
#X connect 11 0 10 0;
#X connect 12 0 34 0;
#X connect 13 0 33 0;
#X connect 14 0 13 1;
#X connect 14 0 36 0;
#X connect 14 0 23 0;
#X connect 14 0 37 0;
#X connect 14 0 40 0;
#X connect 15 0 13 0;
#X connect 15 0 12 0;
#X connect 15 0 20 0;
#X connect 15 0 25 0;
#X connect 17 0 16 0;
#X connect 18 0 12 1;
#X connect 18 0 41 0;
#X connect 19 0 3 1;
#X connect 20 0 21 0;
#X connect 21 0 19 0;
#X connect 22 0 20 1;
#X connect 22 0 42 0;
#X connect 23 0 22 0;
#X connect 24 0 3 1;
#X connect 25 0 35 0;
#X connect 26 0 25 1;
#X connect 26 0 43 0;
#X connect 32 0 27 0;
#X connect 32 0 28 0;
#X connect 32 0 29 0;
#X connect 32 0 30 0;
#X connect 33 0 1 0;
#X connect 34 0 2 0;
#X connect 35 0 24 0;
#X connect 36 0 18 0;
#X connect 37 0 26 0;
#X connect 38 0 6 1;
#X connect 39 0 38 0;
#X connect 40 0 1 1;
#X connect 41 0 2 1;
#X connect 42 0 19 1;
#X connect 43 0 24 1;
#X connect 44 0 39 0;
#X connect 45 0 7 0;
