#N canvas 722 259 496 283 12;
#X text 355 20 loop duration;
#X floatatom 310 62 0 0 0 0 - - -;
#X obj 313 42 hsl 128 15 20 4000 0 0 empty empty empty -2 -8 0 10 -262130
-1 -1 2600 0;
#X obj 143 144 *~;
#X floatatom 161 62 5 0 1 0 - - -;
#X obj 310 212 dac~;
#X text 158 20 FEEDBACK/SUSTAIN;
#N canvas 1385 434 450 300 blip 0;
#X obj 142 26 inlet;
#X obj 71 254 outlet~;
#X obj 142 74 line~;
#X obj 71 149 osc~;
#X obj 71 203 sin~;
#X obj 71 177 *~;
#X msg 142 50 1 \, 0 200;
#X obj 71 227 *~ 0.1;
#X obj 71 71 random 40;
#X obj 71 119 mtof;
#X obj 71 95 + 50;
#X obj 142 254 throw~ bufs;
#X connect 0 0 6 0;
#X connect 0 0 8 0;
#X connect 2 0 5 1;
#X connect 3 0 5 0;
#X connect 4 0 7 0;
#X connect 5 0 4 0;
#X connect 6 0 2 0;
#X connect 7 0 1 0;
#X connect 7 0 11 0;
#X connect 8 0 10 0;
#X connect 9 0 3 0;
#X connect 10 0 9 0;
#X restore 26 117 pd blip;
#X obj 26 91 bng 15 250 50 0 empty empty empty 17 7 0 10 -262130 -1
-1;
#N canvas 0 23 450 300 player 0;
#X obj 68 151 readsf~ 2;
#X msg 21 87 open /Volumes/Audio/Projekty/Cage-Joyce/Samples-Piano/chord-07.wav
\, 1;
#X obj 69 36 inlet;
#X obj 67 190 outlet~;
#X obj 127 192 throw~ bufs;
#X connect 0 0 3 0;
#X connect 0 0 4 0;
#X connect 1 0 0 0;
#X connect 2 0 1 0;
#X restore 26 61 pd player;
#X obj 26 35 bng 15 250 50 0 empty empty empty 17 7 0 10 -262130 -1
-1;
#X obj 143 172 throw~ bufs;
#X obj 25 184 catch~ bufs;
#X obj 161 113 line~;
#X msg 161 89 \$1 100;
#X obj 164 42 hsl 128 15 0 1 0 0 empty empty empty -2 -8 0 10 -262130
-1 -1 7000 0;
#X obj 25 212 delwrite~ buff 4000;
#X obj 310 113 line~;
#X obj 310 184 *~ 1;
#X obj 310 156 delread4~ buff;
#X msg 310 89 \$1 300;
#X connect 1 0 20 0;
#X connect 2 0 1 0;
#X connect 3 0 11 0;
#X connect 4 0 14 0;
#X connect 8 0 7 0;
#X connect 10 0 9 0;
#X connect 12 0 16 0;
#X connect 13 0 3 1;
#X connect 14 0 13 0;
#X connect 15 0 4 0;
#X connect 17 0 19 0;
#X connect 18 0 5 0;
#X connect 18 0 5 1;
#X connect 19 0 3 0;
#X connect 19 0 18 0;
#X connect 20 0 17 0;
