#N canvas 1562 301 516 579 12;
#N canvas 1074 375 1108 629 rungler 0;
#X obj 64 349 samphold~;
#X obj 143 349 samphold~;
#X obj 222 349 samphold~;
#X obj 302 349 samphold~;
#X obj 434 436 env~ 2;
#X obj 513 436 env~ 2;
#X obj 592 436 env~ 2;
#X obj 382 349 samphold~;
#X obj 462 349 samphold~;
#X obj 542 350 samphold~;
#X obj 624 349 samphold~;
#X obj 222 103 clip~ 0 1;
#X obj 64 228 expr~ ($v1*-1)+1;
#X obj 434 539 s \$1-bit1;
#X obj 513 539 s \$1-bit2;
#X obj 592 539 s \$1-bit3;
#X obj 171 541 s~ \$1-XOR;
#X obj 88 541 s~ \$1-RUN;
#X obj 88 499 expr~ (($v1/8)+($v2/4)+($v3/2));
#X obj 222 16 inlet~;
#X obj 521 16 inlet~;
#X obj 33 541 outlet~;
#X obj 271 541 outlet~;
#X obj 434 465 expr if($f1>50 \, 1 \, 0);
#X obj 513 489 expr if($f1>50 \, 1 \, 0);
#X obj 592 513 expr if($f1>50 \, 1 \, 0);
#X obj 64 380 s~ \$1-1-sh;
#X obj 143 380 s~ \$1-2-sh;
#X obj 222 380 s~ \$1-3-sh;
#X obj 302 380 s~ \$1-4-sh;
#X obj 382 380 s~ \$1-5-sh;
#X obj 462 380 s~ \$1-6-sh;
#X obj 542 380 s~ \$1-7-sh;
#X obj 143 320 r~ \$1-1-sh;
#X obj 222 320 r~ \$1-2-sh;
#X obj 302 320 r~ \$1-3-sh;
#X obj 382 320 r~ \$1-4-sh;
#X obj 462 320 r~ \$1-5-sh;
#X obj 542 320 r~ \$1-6-sh;
#X obj 624 320 r~ \$1-7-sh;
#X obj 64 203 expr~ if($v1==$v2 \, 1 \, 0);
#X obj 229 144 expr~ if($v1<$v2 \, 1 \, 0);
#X obj 64 177 expr~ if($v1>$v2 \, 1 \, 0);
#X obj 635 383 clip~ 0 1;
#X obj 222 50 expr~ if($v1>0 \, 1 \, 0);
#X obj 522 164 expr~ if($v1>0 \, 1 \, 0);
#X obj 348 16 inlet;
#X text 394 15 loop;
#X obj 222 78 *~ 0;
#X connect 0 0 26 0;
#X connect 1 0 27 0;
#X connect 2 0 28 0;
#X connect 3 0 29 0;
#X connect 4 0 23 0;
#X connect 5 0 24 0;
#X connect 6 0 25 0;
#X connect 7 0 30 0;
#X connect 8 0 4 0;
#X connect 8 0 18 0;
#X connect 8 0 31 0;
#X connect 9 0 5 0;
#X connect 9 0 18 1;
#X connect 9 0 32 0;
#X connect 10 0 6 0;
#X connect 10 0 18 2;
#X connect 10 0 43 0;
#X connect 11 0 41 1;
#X connect 11 0 42 1;
#X connect 12 0 0 0;
#X connect 12 0 16 0;
#X connect 12 0 22 0;
#X connect 18 0 17 0;
#X connect 18 0 21 0;
#X connect 19 0 44 0;
#X connect 20 0 45 0;
#X connect 23 0 13 0;
#X connect 24 0 14 0;
#X connect 25 0 15 0;
#X connect 33 0 1 0;
#X connect 34 0 2 0;
#X connect 35 0 3 0;
#X connect 36 0 7 0;
#X connect 37 0 8 0;
#X connect 38 0 9 0;
#X connect 39 0 10 0;
#X connect 40 0 12 0;
#X connect 41 0 40 1;
#X connect 42 0 40 0;
#X connect 43 0 41 0;
#X connect 43 0 42 0;
#X connect 44 0 48 0;
#X connect 45 0 0 1;
#X connect 45 0 10 1;
#X connect 45 0 9 1;
#X connect 45 0 8 1;
#X connect 45 0 7 1;
#X connect 45 0 3 1;
#X connect 45 0 2 1;
#X connect 45 0 1 1;
#X connect 46 0 48 1;
#X connect 48 0 11 0;
#X restore 164 91 pd rungler;
#X obj 165 289 osc~;
#X obj 114 551 dac~;
#X obj 165 264 mtof~;
#X obj 165 186 *~ 40;
#X obj 165 240 +~ 60;
#X obj 117 431 tgl 15 0 empty empty empty 17 7 0 10 -262144 -1 -1 0
0.1;
#X obj 175 317 s~ osc1;
#X obj 164 24 r~ osc1;
#X floatatom 219 186 5 0 130 0 - - -;
#X floatatom 219 240 5 0 0 0 - - -;
#X obj 359 289 osc~;
#X obj 359 264 mtof~;
#X obj 359 186 *~ 40;
#X obj 359 240 +~ 60;
#X floatatom 413 186 5 0 130 0 - - -;
#X floatatom 413 240 5 0 0 0 - - -;
#X obj 373 317 s~ osc2;
#X obj 231 24 r~ osc2;
#X obj 55 294 mtof~;
#X obj 55 186 *~ 40;
#X obj 55 270 +~ 60;
#X floatatom 87 161 5 0 0 0 - - -;
#X floatatom 87 246 5 0 0 0 - - -;
#X floatatom 68 397 5 0 0 0 - - -;
#X obj 166 355 expr~ if($v1>$v2 \, -0.5 \, 0.5);
#X obj 184 123 -~ 0.5;
#X obj 166 386 +~;
#N canvas 964 702 892 326 ctl 0;
#X obj 22 56 list trim;
#X obj 22 32 r fromGUI;
#X obj 749 47 r fromSystem;
#X obj 749 71 list trim;
#X obj 749 95 route /tilts;
#X obj 749 119 unpack 0 0;
#X floatatom 749 143 5 0 0 0 - - -;
#X floatatom 816 143 5 0 0 0 - - -;
#X obj 22 277 s f-run;
#X obj 317 252 s o1-run;
#X obj 449 252 s o2-run;
#X obj 515 277 s o2-offs;
#X obj 581 252 s on;
#X obj 383 277 s o1-offs;
#X obj 91 277 s f-offs;
#X obj 160 277 s f-q;
#X obj 581 228 * 0.5;
#X obj 317 172 route /o1-run /o1-offs /o2-run /o2-offs /on /tog, f
57;
#X obj 22 228 * 40;
#X obj 749 214 s x;
#X obj 816 214 s y;
#X obj 383 252 - 100;
#X obj 515 228 * 200;
#X obj 383 228 * 200;
#X obj 515 252 - 100;
#X obj 91 252 + 30;
#X obj 91 228 * 90;
#X obj 22 172 route /f-run /f-offs /f-q /loop, f 40;
#X obj 229 228 * -1;
#X obj 229 252 + 1;
#X obj 229 277 s loop;
#X obj 449 228 * 100;
#X obj 317 228 * 100;
#X obj 160 252 + 0.3;
#X obj 160 228 * 3;
#X obj 40 84 route /f-run-xy /f-offs-xy /f-q-xy, f 37;
#X obj 335 84 route /o1-run-xy /o1-offs-xy /o2-run-xy /o2-offs-xy;
#N canvas 1501 379 302 300 switcher 0;
#X obj 114 19 inlet;
#X obj 72 237 outlet;
#X obj 114 43 route 0 1 2;
#X msg 110 101 0;
#X msg 145 101 1;
#X msg 181 101 0;
#X msg 216 101 1;
#X obj 71 151 spigot;
#X obj 78 70 t b b;
#X msg 38 203 1;
#X obj 142 151 spigot;
#X obj 71 127 r x;
#X obj 142 127 r y;
#X connect 0 0 2 0;
#X connect 2 0 4 0;
#X connect 2 1 3 0;
#X connect 2 1 8 0;
#X connect 2 2 3 0;
#X connect 2 2 6 0;
#X connect 3 0 7 1;
#X connect 4 0 7 1;
#X connect 5 0 10 1;
#X connect 6 0 10 1;
#X connect 7 0 1 0;
#X connect 8 0 9 0;
#X connect 8 1 5 0;
#X connect 8 1 3 0;
#X connect 9 0 1 0;
#X connect 10 0 1 0;
#X connect 11 0 7 0;
#X connect 12 0 10 0;
#X restore 40 115 pd switcher;
#X obj 22 202 * 1;
#X obj 91 202 * 1;
#X obj 160 202 * 1;
#X obj 317 202 * 1;
#X obj 383 202 * 1;
#X obj 449 202 * 1;
#X obj 515 202 * 1;
#N canvas 1501 379 302 300 switcher 0;
#X obj 114 19 inlet;
#X obj 72 237 outlet;
#X obj 114 43 route 0 1 2;
#X msg 110 101 0;
#X msg 145 101 1;
#X msg 181 101 0;
#X msg 216 101 1;
#X obj 71 151 spigot;
#X obj 78 70 t b b;
#X msg 38 203 1;
#X obj 142 151 spigot;
#X obj 71 127 r x;
#X obj 142 127 r y;
#X connect 0 0 2 0;
#X connect 2 0 4 0;
#X connect 2 1 3 0;
#X connect 2 1 8 0;
#X connect 2 2 3 0;
#X connect 2 2 6 0;
#X connect 3 0 7 1;
#X connect 4 0 7 1;
#X connect 5 0 10 1;
#X connect 6 0 10 1;
#X connect 7 0 1 0;
#X connect 8 0 9 0;
#X connect 8 1 5 0;
#X connect 8 1 3 0;
#X connect 9 0 1 0;
#X connect 10 0 1 0;
#X connect 11 0 7 0;
#X connect 12 0 10 0;
#X restore 125 115 pd switcher;
#N canvas 1501 379 302 300 switcher 0;
#X obj 114 19 inlet;
#X obj 72 237 outlet;
#X obj 114 43 route 0 1 2;
#X msg 110 101 0;
#X msg 145 101 1;
#X msg 181 101 0;
#X msg 216 101 1;
#X obj 71 151 spigot;
#X obj 78 70 t b b;
#X msg 38 203 1;
#X obj 142 151 spigot;
#X obj 71 127 r x;
#X obj 142 127 r y;
#X connect 0 0 2 0;
#X connect 2 0 4 0;
#X connect 2 1 3 0;
#X connect 2 1 8 0;
#X connect 2 2 3 0;
#X connect 2 2 6 0;
#X connect 3 0 7 1;
#X connect 4 0 7 1;
#X connect 5 0 10 1;
#X connect 6 0 10 1;
#X connect 7 0 1 0;
#X connect 8 0 9 0;
#X connect 8 1 5 0;
#X connect 8 1 3 0;
#X connect 9 0 1 0;
#X connect 10 0 1 0;
#X connect 11 0 7 0;
#X connect 12 0 10 0;
#X restore 210 115 pd switcher;
#N canvas 1501 379 302 300 switcher 0;
#X obj 114 19 inlet;
#X obj 72 237 outlet;
#X obj 114 43 route 0 1 2;
#X msg 110 101 0;
#X msg 145 101 1;
#X msg 181 101 0;
#X msg 216 101 1;
#X obj 71 151 spigot;
#X obj 78 70 t b b;
#X msg 38 203 1;
#X obj 142 151 spigot;
#X obj 71 127 r x;
#X obj 142 127 r y;
#X connect 0 0 2 0;
#X connect 2 0 4 0;
#X connect 2 1 3 0;
#X connect 2 1 8 0;
#X connect 2 2 3 0;
#X connect 2 2 6 0;
#X connect 3 0 7 1;
#X connect 4 0 7 1;
#X connect 5 0 10 1;
#X connect 6 0 10 1;
#X connect 7 0 1 0;
#X connect 8 0 9 0;
#X connect 8 1 5 0;
#X connect 8 1 3 0;
#X connect 9 0 1 0;
#X connect 10 0 1 0;
#X connect 11 0 7 0;
#X connect 12 0 10 0;
#X restore 335 115 pd switcher;
#N canvas 1501 379 302 300 switcher 0;
#X obj 114 19 inlet;
#X obj 72 237 outlet;
#X obj 114 43 route 0 1 2;
#X msg 110 101 0;
#X msg 145 101 1;
#X msg 181 101 0;
#X msg 216 101 1;
#X obj 71 151 spigot;
#X obj 78 70 t b b;
#X msg 38 203 1;
#X obj 142 151 spigot;
#X obj 71 127 r x;
#X obj 142 127 r y;
#X connect 0 0 2 0;
#X connect 2 0 4 0;
#X connect 2 1 3 0;
#X connect 2 1 8 0;
#X connect 2 2 3 0;
#X connect 2 2 6 0;
#X connect 3 0 7 1;
#X connect 4 0 7 1;
#X connect 5 0 10 1;
#X connect 6 0 10 1;
#X connect 7 0 1 0;
#X connect 8 0 9 0;
#X connect 8 1 5 0;
#X connect 8 1 3 0;
#X connect 9 0 1 0;
#X connect 10 0 1 0;
#X connect 11 0 7 0;
#X connect 12 0 10 0;
#X restore 423 115 pd switcher;
#N canvas 1501 379 302 300 switcher 0;
#X obj 114 19 inlet;
#X obj 72 237 outlet;
#X obj 114 43 route 0 1 2;
#X msg 110 101 0;
#X msg 145 101 1;
#X msg 181 101 0;
#X msg 216 101 1;
#X obj 71 151 spigot;
#X obj 78 70 t b b;
#X msg 38 203 1;
#X obj 142 151 spigot;
#X obj 71 127 r x;
#X obj 142 127 r y;
#X connect 0 0 2 0;
#X connect 2 0 4 0;
#X connect 2 1 3 0;
#X connect 2 1 8 0;
#X connect 2 2 3 0;
#X connect 2 2 6 0;
#X connect 3 0 7 1;
#X connect 4 0 7 1;
#X connect 5 0 10 1;
#X connect 6 0 10 1;
#X connect 7 0 1 0;
#X connect 8 0 9 0;
#X connect 8 1 5 0;
#X connect 8 1 3 0;
#X connect 9 0 1 0;
#X connect 10 0 1 0;
#X connect 11 0 7 0;
#X connect 12 0 10 0;
#X restore 512 115 pd switcher;
#N canvas 1501 379 302 300 switcher 0;
#X obj 114 19 inlet;
#X obj 72 237 outlet;
#X obj 114 43 route 0 1 2;
#X msg 110 101 0;
#X msg 145 101 1;
#X msg 181 101 0;
#X msg 216 101 1;
#X obj 71 151 spigot;
#X obj 78 70 t b b;
#X msg 38 203 1;
#X obj 142 151 spigot;
#X obj 71 127 r x;
#X obj 142 127 r y;
#X connect 0 0 2 0;
#X connect 2 0 4 0;
#X connect 2 1 3 0;
#X connect 2 1 8 0;
#X connect 2 2 3 0;
#X connect 2 2 6 0;
#X connect 3 0 7 1;
#X connect 4 0 7 1;
#X connect 5 0 10 1;
#X connect 6 0 10 1;
#X connect 7 0 1 0;
#X connect 8 0 9 0;
#X connect 8 1 5 0;
#X connect 8 1 3 0;
#X connect 9 0 1 0;
#X connect 10 0 1 0;
#X connect 11 0 7 0;
#X connect 12 0 10 0;
#X restore 600 115 pd switcher;
#X obj 40 139 t b f;
#X obj 125 139 t b f;
#X obj 210 139 t b f;
#X obj 335 139 t b f;
#X obj 423 139 t b f;
#X obj 512 139 t b f;
#X obj 600 139 t b f;
#X obj 749 190 * 0.5;
#X obj 816 190 * 0.5;
#X obj 749 166 + 2;
#X obj 816 166 + 2;
#X connect 0 0 27 0;
#X connect 0 0 35 0;
#X connect 1 0 0 0;
#X connect 2 0 3 0;
#X connect 3 0 4 0;
#X connect 4 0 5 0;
#X connect 5 0 6 0;
#X connect 5 1 7 0;
#X connect 6 0 60 0;
#X connect 7 0 61 0;
#X connect 16 0 12 0;
#X connect 17 0 41 0;
#X connect 17 1 42 0;
#X connect 17 2 43 0;
#X connect 17 3 44 0;
#X connect 17 4 16 0;
#X connect 17 5 16 0;
#X connect 18 0 8 0;
#X connect 21 0 13 0;
#X connect 22 0 24 0;
#X connect 23 0 21 0;
#X connect 24 0 11 0;
#X connect 25 0 14 0;
#X connect 26 0 25 0;
#X connect 27 0 38 0;
#X connect 27 1 39 0;
#X connect 27 2 40 0;
#X connect 27 3 28 0;
#X connect 27 4 17 0;
#X connect 28 0 29 0;
#X connect 29 0 30 0;
#X connect 31 0 10 0;
#X connect 32 0 9 0;
#X connect 33 0 15 0;
#X connect 34 0 33 0;
#X connect 35 0 37 0;
#X connect 35 1 45 0;
#X connect 35 2 46 0;
#X connect 35 3 36 0;
#X connect 36 0 47 0;
#X connect 36 1 48 0;
#X connect 36 2 49 0;
#X connect 36 3 50 0;
#X connect 37 0 51 0;
#X connect 38 0 18 0;
#X connect 39 0 26 0;
#X connect 40 0 34 0;
#X connect 41 0 32 0;
#X connect 42 0 23 0;
#X connect 43 0 31 0;
#X connect 44 0 22 0;
#X connect 45 0 52 0;
#X connect 46 0 53 0;
#X connect 47 0 54 0;
#X connect 48 0 55 0;
#X connect 49 0 56 0;
#X connect 50 0 57 0;
#X connect 51 0 38 0;
#X connect 51 1 38 1;
#X connect 52 0 39 0;
#X connect 52 1 39 1;
#X connect 53 0 40 0;
#X connect 53 1 40 1;
#X connect 54 0 41 0;
#X connect 54 1 41 1;
#X connect 55 0 42 0;
#X connect 55 1 42 1;
#X connect 56 0 43 0;
#X connect 56 1 43 1;
#X connect 57 0 44 0;
#X connect 57 1 44 1;
#X connect 58 0 19 0;
#X connect 59 0 20 0;
#X connect 60 0 58 0;
#X connect 61 0 59 0;
#X restore 334 473 pd ctl;
#X obj 87 134 r f-run;
#X obj 219 159 r o1-run;
#X obj 413 159 r o2-run;
#X obj 87 220 r f-offs;
#X obj 219 214 r o1-offs;
#X obj 413 214 r o2-offs;
#X obj 68 373 r f-q;
#X obj 117 451 pack 0 50;
#X obj 117 475 line~;
#X obj 99 502 *~;
#X obj 117 387 r on;
#X obj 197 57 tgl 15 0 empty loop empty 17 7 0 10 -262144 -1 -1 1 1
;
#X obj 43 447 bob~;
#X obj 68 420 line~;
#X obj 43 471 *~ 0.5;
#X obj 139 523 rev2~ 85 90 3000 20;
#X connect 0 0 4 0;
#X connect 0 0 13 0;
#X connect 0 0 20 0;
#X connect 0 1 26 0;
#X connect 1 0 7 0;
#X connect 1 0 25 0;
#X connect 3 0 1 0;
#X connect 4 0 5 0;
#X connect 5 0 3 0;
#X connect 6 0 36 0;
#X connect 8 0 0 0;
#X connect 9 0 4 1;
#X connect 10 0 5 1;
#X connect 11 0 17 0;
#X connect 11 0 25 1;
#X connect 12 0 11 0;
#X connect 13 0 14 0;
#X connect 14 0 12 0;
#X connect 15 0 13 1;
#X connect 16 0 14 1;
#X connect 18 0 0 2;
#X connect 19 0 41 1;
#X connect 20 0 21 0;
#X connect 21 0 19 0;
#X connect 22 0 20 1;
#X connect 23 0 21 1;
#X connect 24 0 42 0;
#X connect 25 0 27 0;
#X connect 26 0 27 1;
#X connect 27 0 41 0;
#X connect 29 0 22 0;
#X connect 30 0 9 0;
#X connect 31 0 15 0;
#X connect 32 0 23 0;
#X connect 33 0 10 0;
#X connect 34 0 16 0;
#X connect 35 0 24 0;
#X connect 36 0 37 0;
#X connect 37 0 38 1;
#X connect 38 0 2 0;
#X connect 38 0 2 1;
#X connect 38 0 44 0;
#X connect 39 0 6 0;
#X connect 40 0 0 1;
#X connect 41 0 43 0;
#X connect 42 0 41 2;
#X connect 43 0 38 0;
#X connect 44 0 2 0;
#X connect 44 1 2 1;
